HIERARCHY
ROOT joint_Root
{
	OFFSET 0.0 0.0 0.0
	CHANNELS 6 Xposition Yposition Zposition Zrotation Xrotation Yrotation 
	JOINT Hips
	{
		OFFSET 4.5925 91.4895 -427.239
		CHANNELS 6 Xposition Yposition Zposition Zrotation Xrotation Yrotation 
		JOINT Spine
		{
			OFFSET 15.7357 0.0 0.0
			CHANNELS 6 Xposition Yposition Zposition Zrotation Xrotation Yrotation 
			JOINT Chest
			{
				OFFSET 8.98455 -0.406207 0.0
				CHANNELS 6 Xposition Yposition Zposition Zrotation Xrotation Yrotation 
				JOINT Neck
				{
					OFFSET 16.3773 0.0 0.0
					CHANNELS 6 Xposition Yposition Zposition Zrotation Xrotation Yrotation 
					JOINT Head
					{
						OFFSET 6.45672 0.0 0.0
						CHANNELS 6 Xposition Yposition Zposition Zrotation Xrotation Yrotation 
						End Site
						{
							OFFSET 0.0 0.0 0.0
						}
					}
				}
				JOINT Shoulder_L
				{
					OFFSET 12.9942 -0.242716 4.98039
					CHANNELS 6 Xposition Yposition Zposition Zrotation Xrotation Yrotation 
					JOINT UpperArm_L
					{
						OFFSET 5.34809 0.0 0.0
						CHANNELS 6 Xposition Yposition Zposition Zrotation Xrotation Yrotation 
						JOINT LowerArm_L
						{
							OFFSET 24.3286 1.87007e-05 0.0
							CHANNELS 6 Xposition Yposition Zposition Zrotation Xrotation Yrotation 
							JOINT Hand_L
							{
								OFFSET 22.2916 0.0 0.0
								CHANNELS 6 Xposition Yposition Zposition Zrotation Xrotation Yrotation 
								End Site
								{
									OFFSET 0.0 0.0 0.0
								}
							}
						}
					}
				}
				JOINT Shoulder_R
				{
					OFFSET 12.9945 -0.242716 -4.98039
					CHANNELS 6 Xposition Yposition Zposition Zrotation Xrotation Yrotation 
					JOINT UpperArm_R
					{
						OFFSET -5.34813 0.0 0.0
						CHANNELS 6 Xposition Yposition Zposition Zrotation Xrotation Yrotation 
						JOINT LowerArm_R
						{
							OFFSET -24.3289 0.000322201 0.0
							CHANNELS 6 Xposition Yposition Zposition Zrotation Xrotation Yrotation 
							JOINT Hand_R
							{
								OFFSET -22.2915 -0.000108084 0.0
								CHANNELS 6 Xposition Yposition Zposition Zrotation Xrotation Yrotation 
								End Site
								{
									OFFSET 0.0 0.0 0.0
								}
							}
						}
					}
				}
			}
		}
		JOINT UpperLeg_L
		{
			OFFSET -2.19248 -6.46944 0.0
			CHANNELS 6 Xposition Yposition Zposition Zrotation Xrotation Yrotation 
			JOINT LowerLeg_L
			{
				OFFSET 39.0811 0.0 -1.23785e-05
				CHANNELS 6 Xposition Yposition Zposition Zrotation Xrotation Yrotation 
				JOINT Foot_L
				{
					OFFSET 40.9854 0.0 -1.26872e-05
					CHANNELS 6 Xposition Yposition Zposition Zrotation Xrotation Yrotation 
					JOINT Toes_L
					{
						OFFSET 11.7543 0.0 0.0
						CHANNELS 6 Xposition Yposition Zposition Zrotation Xrotation Yrotation 
						End Site
						{
							OFFSET 0.0 0.0 0.0
						}
					}
				}
			}
		}
		JOINT UpperLeg_R
		{
			OFFSET -2.19251 6.46944 0.0
			CHANNELS 6 Xposition Yposition Zposition Zrotation Xrotation Yrotation 
			JOINT LowerLeg_R
			{
				OFFSET -39.0811 -0.00228153 -0.0401928
				CHANNELS 6 Xposition Yposition Zposition Zrotation Xrotation Yrotation 
				JOINT Foot_R
				{
					OFFSET -40.9854 0.0 0.0
					CHANNELS 6 Xposition Yposition Zposition Zrotation Xrotation Yrotation 
					JOINT Toes_R
					{
						OFFSET -11.7543 0.0 0.0
						CHANNELS 6 Xposition Yposition Zposition Zrotation Xrotation Yrotation 
						End Site
						{
							OFFSET 0.0 0.0 0.0
						}
					}
				}
			}
		}
	}
}
MOTION
Frames:	9
Frame Time:	0.0333333
0.000000 0.000000 0.000000 0.000000 0.000000 -0.000000 2.536690 90.943600 -0.227043 91.116300 -5.666780 12.169400 15.735700 0.000005 -0.000001 87.453800 82.267900 -89.172400 8.984550 -0.406207 -0.000000 7.675390 -0.682921 -3.387780 16.377300 -0.000001 -0.000001 10.876900 0.331874 -1.823800 6.456720 -0.000001 -0.000000 -1.499570 2.066460 -0.052601 12.994200 -0.242716 4.980390 -91.833700 6.012380 -73.004500 5.348090 -0.000007 -0.000001 -63.665100 36.931800 -12.060700 24.328600 0.000019 0.000005 11.383300 25.274100 -25.246500 22.291600 -0.000001 0.000005 10.734000 5.293870 0.243692 12.994500 -0.242716 -4.980390 88.416900 8.718200 -79.666400 -5.348130 -0.000001 -0.000004 -65.735800 34.255400 -9.929530 -24.328900 0.000322 -0.000009 4.491840 10.860000 -22.638700 -22.291500 -0.000108 -0.000004 12.307900 5.418550 -3.550110 -2.192480 -6.469440 -0.000000 -177.845000 -15.337700 3.965320 39.081100 -0.000007 -0.000012 -0.095093 0.175643 28.431200 40.985400 -0.000006 -0.000013 3.194070 5.943460 -70.516800 11.754300 -0.000000 0.000003 -0.000235 -0.002121 -16.657200 -2.192510 6.469440 -0.000001 168.501000 20.030000 -175.898000 -39.081100 -0.002282 -0.040193 -0.217679 0.395510 29.193600 -40.985400 0.000008 0.000006 1.144410 16.801700 -69.848000 -11.754300 -0.000006 -0.000006 -0.003004 -0.040648 -18.226200
0.000000 0.000000 0.000000 0.000000 0.000000 -0.000000 2.565580 90.930100 -0.230826 91.087500 -5.723790 12.358700 15.735700 0.000005 -0.000001 87.791800 82.274000 -89.564400 8.984550 -0.406207 -0.000000 7.668120 -0.591511 -3.501820 16.377300 -0.000001 -0.000001 11.615400 0.546071 -2.111430 6.456720 -0.000001 -0.000000 -0.866200 2.426110 -0.715823 12.994200 -0.242716 4.980390 -91.812900 5.925610 -72.954800 5.348090 -0.000007 -0.000001 -63.690800 36.743900 -12.013100 24.328600 0.000019 0.000005 11.425900 25.353600 -25.266600 22.291600 -0.000001 0.000005 10.651600 5.295300 0.203751 12.994500 -0.242716 -4.980390 88.454800 8.481480 -79.635300 -5.348130 -0.000001 -0.000004 -65.638400 34.280600 -10.178800 -24.328900 0.000322 -0.000009 4.494370 10.607100 -23.128300 -22.291500 -0.000108 -0.000004 12.311100 5.420460 -3.614400 -2.192480 -6.469440 -0.000000 -177.782000 -15.339100 4.129480 39.081100 -0.000007 -0.000012 -0.095811 0.176388 28.510200 40.985400 -0.000006 -0.000013 3.213640 5.922280 -70.565900 11.754300 -0.000000 0.000003 -0.000229 -0.002077 -16.655600 -2.192510 6.469440 -0.000001 168.437000 19.990300 -175.725000 -39.081100 -0.002282 -0.040193 -0.220034 0.399064 29.234000 -40.985400 0.000008 0.000006 1.142410 16.856200 -69.859600 -11.754300 -0.000006 -0.000006 -0.002934 -0.039851 -18.193800
0.000000 0.000000 0.000000 0.000000 0.000000 -0.000000 2.601350 90.911200 -0.231075 91.070900 -5.786190 12.545600 15.735700 0.000005 -0.000001 88.101200 82.277200 -89.934000 8.984550 -0.406207 -0.000000 7.665890 -0.508178 -3.627650 16.377300 -0.000001 -0.000001 12.476400 0.814797 -2.451190 6.456720 -0.000001 -0.000000 -0.284842 2.857540 -1.313890 12.994200 -0.242716 4.980390 -91.792800 5.834510 -72.886300 5.348090 -0.000007 -0.000001 -63.692000 36.583500 -12.007000 24.328600 0.000019 0.000005 11.435600 25.366100 -25.275600 22.291600 -0.000001 0.000005 10.668500 5.294340 0.230490 12.994500 -0.242716 -4.980390 88.489200 8.251210 -79.586800 -5.348130 -0.000001 -0.000004 -65.522000 33.572900 -10.423900 -24.328900 0.000322 -0.000009 4.703680 10.606100 -24.091100 -22.291500 -0.000108 -0.000004 11.923900 5.419820 -3.592860 -2.192480 -6.469440 -0.000000 -177.729000 -15.377800 4.281780 39.081100 -0.000007 -0.000012 -0.096481 0.176880 28.610900 40.985400 -0.000006 -0.000013 3.229860 5.872110 -70.626600 11.754300 -0.000000 0.000003 -0.000244 -0.002187 -16.659600 -2.192510 6.469440 -0.000001 168.356000 19.949000 -175.580000 -39.081100 -0.002282 -0.040193 -0.222141 0.401531 29.312900 -40.985400 0.000008 0.000006 1.145940 16.930700 -69.886900 -11.754300 -0.000006 -0.000006 -0.002895 -0.039407 -18.175700
0.000000 0.000000 0.000000 0.000000 0.000000 -0.000000 2.641810 90.895700 -0.270164 91.053800 -5.866450 12.807700 15.735700 0.000005 -0.000001 88.350600 82.242600 -90.257100 8.984550 -0.406207 -0.000000 7.738000 -0.444346 -3.779100 16.377300 -0.000001 -0.000001 13.379600 1.113010 -2.759650 6.456720 -0.000001 -0.000000 0.261594 3.314460 -1.664790 12.994200 -0.242716 4.980390 -91.768700 5.725840 -72.802300 5.348090 -0.000007 -0.000001 -63.726500 36.323400 -12.009900 24.328600 0.000019 0.000005 11.434500 25.390300 -25.253800 22.291600 -0.000001 0.000005 10.760500 5.294220 0.233799 12.994500 -0.242716 -4.980390 88.514900 8.062060 -79.526900 -5.348130 -0.000001 -0.000004 -65.177600 32.476600 -10.840100 -24.328900 0.000322 -0.000009 4.785070 10.097600 -25.527600 -22.291500 -0.000108 -0.000004 11.878300 5.418970 -3.564470 -2.192480 -6.469440 -0.000000 -177.670000 -15.419700 4.492360 39.081100 -0.000007 -0.000012 -0.092299 0.168563 28.703800 40.985400 -0.000006 -0.000013 3.256590 5.824760 -70.663700 11.754300 -0.000000 0.000003 -0.000233 -0.002102 -16.656500 -2.192510 6.469440 -0.000001 168.262000 19.878000 -175.370000 -39.081100 -0.002282 -0.040193 -0.223713 0.403215 29.380500 -40.985400 0.000008 0.000006 1.143810 16.985400 -69.891900 -11.754300 -0.000006 -0.000006 -0.003149 -0.042275 -18.292400
0.000000 0.000000 0.000000 0.000000 0.000000 -0.000000 2.687790 90.872100 -0.302614 91.031100 -5.987250 13.077900 15.735700 0.000005 -0.000001 88.742700 82.186300 -90.741200 8.984550 -0.406207 -0.000000 7.854820 -0.343081 -3.969490 16.377300 -0.000001 -0.000001 14.208900 1.349170 -2.990680 6.456720 -0.000001 -0.000000 0.818523 3.712210 -1.678180 12.994200 -0.242716 4.980390 -91.736600 5.609620 -72.767700 5.348090 -0.000007 -0.000001 -63.729600 36.017400 -12.061400 24.328600 0.000019 0.000005 11.500100 25.529800 -25.270600 22.291600 -0.000001 0.000005 10.691200 5.291910 0.298022 12.994500 -0.242716 -4.980390 88.543800 7.868440 -79.480200 -5.348130 -0.000001 -0.000004 -64.666400 30.960500 -11.434300 -24.328900 0.000322 -0.000009 4.849100 9.456790 -27.314200 -22.291500 -0.000108 -0.000004 12.097300 5.423890 -3.730160 -2.192480 -6.469440 -0.000000 -177.588000 -15.478600 4.695650 39.081100 -0.000007 -0.000012 -0.094623 0.171815 28.842800 40.985400 -0.000006 -0.000013 3.279400 5.769650 -70.727500 11.754300 -0.000000 0.000003 -0.000229 -0.002074 -16.655500 -2.192510 6.469440 -0.000001 168.179000 19.791900 -175.202000 -39.081100 -0.002282 -0.040193 -0.222564 0.399205 29.501200 -40.985400 0.000008 0.000006 1.158800 17.076600 -69.909300 -11.754300 -0.000006 -0.000006 -0.002946 -0.039990 -18.199400
0.000000 0.000000 0.000000 0.000000 0.000000 -0.000000 2.731080 90.859300 -0.351077 91.007500 -6.080450 13.352800 15.735700 0.000005 -0.000001 88.975600 82.115500 -91.068400 8.984550 -0.406207 -0.000000 7.998680 -0.285030 -4.161590 16.377300 -0.000001 -0.000001 14.994200 1.536500 -3.086320 6.456720 -0.000001 -0.000000 1.267520 3.990230 -1.622470 12.994200 -0.242716 4.980390 -91.719000 5.537440 -72.724400 5.348090 -0.000007 -0.000001 -63.716400 35.733200 -12.078500 24.328600 0.000019 0.000005 11.491400 25.528300 -25.254600 22.291600 -0.000001 0.000005 10.814100 5.292940 0.269329 12.994500 -0.242716 -4.980390 88.589900 7.606420 -79.465300 -5.348130 -0.000001 -0.000004 -64.047400 29.087700 -12.226900 -24.328900 0.000322 -0.000009 4.875060 8.689090 -29.453900 -22.291500 -0.000108 -0.000004 12.306000 5.423800 -3.727530 -2.192480 -6.469440 -0.000000 -177.529000 -15.499400 4.916360 39.081100 -0.000007 -0.000012 -0.091858 0.166222 28.926100 40.985400 -0.000006 -0.000013 3.303070 5.696970 -70.752900 11.754300 -0.000000 0.000003 -0.000229 -0.002077 -16.655600 -2.192510 6.469440 -0.000001 168.099000 19.699100 -174.999000 -39.081100 -0.002282 -0.040193 -0.223939 0.400672 29.560100 -40.985400 0.000008 0.000006 1.153600 17.129500 -69.890500 -11.754300 -0.000006 -0.000006 -0.003093 -0.041654 -18.267100
0.000000 0.000000 0.000000 0.000000 0.000000 -0.000000 2.786070 90.849200 -0.443607 90.958900 -6.216830 13.533900 15.735700 0.000005 -0.000001 89.151900 82.074800 -91.327200 8.984550 -0.406207 -0.000000 8.081740 -0.239656 -4.329490 16.377300 -0.000001 -0.000001 15.705600 1.629460 -3.155590 6.456720 -0.000001 -0.000000 1.746840 4.208050 -1.627280 12.994200 -0.242716 4.980390 -91.693500 5.450790 -72.711700 5.348090 -0.000007 -0.000001 -63.739500 35.491600 -12.005300 24.328600 0.000019 0.000005 11.494200 25.521300 -25.265900 22.291600 -0.000001 0.000005 10.729100 5.291290 0.315239 12.994500 -0.242716 -4.980390 88.637900 7.309960 -79.414800 -5.348130 -0.000001 -0.000004 -63.119700 27.295100 -13.381800 -24.328900 0.000322 -0.000009 4.970020 8.020240 -31.940600 -22.291500 -0.000108 -0.000004 12.437800 5.418050 -3.533350 -2.192480 -6.469440 -0.000000 -177.466000 -15.557900 4.985880 39.081100 -0.000007 -0.000012 -0.090455 0.162881 29.045600 40.985400 -0.000006 -0.000013 3.325280 5.609170 -70.756600 11.754300 -0.000000 0.000003 -0.000231 -0.002093 -16.656200 -2.192510 6.469440 -0.000001 168.110000 19.607000 -174.949000 -39.081100 -0.002282 -0.040193 -0.220528 0.393543 29.629700 -40.985400 0.000008 0.000006 1.156680 17.175600 -69.834700 -11.754300 -0.000006 -0.000006 -0.003025 -0.040886 -18.235900
0.000000 0.000000 0.000000 0.000000 0.000000 -0.000000 2.850280 90.847600 -0.525868 90.941700 -6.426430 13.703900 15.735700 0.000005 -0.000001 89.309600 82.042700 -91.559500 8.984550 -0.406207 -0.000000 8.147600 -0.198467 -4.481210 16.377300 -0.000001 -0.000001 16.375600 1.744370 -3.282220 6.456720 -0.000001 -0.000000 2.166320 4.378330 -1.805240 12.994200 -0.242716 4.980390 -91.669700 5.378680 -72.726200 5.348090 -0.000007 -0.000001 -63.847300 35.255800 -11.774700 24.328600 0.000019 0.000005 11.492700 25.530900 -25.255200 22.291600 -0.000001 0.000005 10.809500 5.292560 0.280353 12.994500 -0.242716 -4.980390 88.688400 7.007530 -79.370600 -5.348130 -0.000001 -0.000004 -62.006200 25.311800 -14.819100 -24.328900 0.000322 -0.000009 5.046680 7.341620 -34.654300 -22.291500 -0.000108 -0.000004 12.587900 5.416550 -3.483170 -2.192480 -6.469440 -0.000000 -177.411000 -15.727200 5.111360 39.081100 -0.000007 -0.000012 -0.089196 0.160394 29.078800 40.985400 -0.000006 -0.000013 3.364780 5.573150 -70.741900 11.754300 -0.000000 0.000003 -0.000231 -0.002086 -16.655900 -2.192510 6.469440 -0.000001 168.078000 19.473900 -174.897000 -39.081100 -0.002282 -0.040193 -0.221846 0.395473 29.653800 -40.985400 0.000008 0.000006 1.154710 17.301400 -69.759500 -11.754300 -0.000006 -0.000006 -0.003070 -0.041388 -18.256300
0.000000 0.000000 0.000000 0.000000 0.000000 -0.000000 2.918400 90.850100 -0.616257 90.927700 -6.658290 13.873100 15.735700 0.000005 -0.000001 89.482600 82.028000 -91.793200 8.984550 -0.406207 -0.000000 8.178540 -0.151730 -4.605870 16.377300 -0.000001 -0.000001 17.082300 1.817480 -3.469890 6.456720 -0.000001 -0.000000 2.527040 4.598710 -2.177870 12.994200 -0.242716 4.980390 -91.614600 5.219100 -72.783000 5.348090 -0.000007 -0.000001 -64.092500 35.107700 -11.450000 24.328600 0.000019 0.000005 11.531000 25.723400 -25.175800 22.291600 -0.000001 0.000005 10.756800 5.293200 0.262268 12.994500 -0.242716 -4.980390 88.741400 6.659390 -79.272600 -5.348130 -0.000001 -0.000004 -60.770100 23.253200 -16.509700 -24.328900 0.000322 -0.000009 5.343960 6.983240 -37.579400 -22.291500 -0.000108 -0.000004 12.828200 5.411690 -3.321250 -2.192480 -6.469440 -0.000000 -177.360000 -15.910500 5.238410 39.081100 -0.000007 -0.000012 -0.088614 0.159268 29.090900 40.985400 -0.000006 -0.000013 3.392980 5.497800 -70.707400 11.754300 -0.000000 0.000003 -0.000240 -0.002159 -16.658600 -2.192510 6.469440 -0.000001 168.049000 19.353100 -174.848000 -39.081100 -0.002282 -0.040193 -0.217971 0.388499 29.664500 -40.985400 0.000008 0.000006 1.155740 17.437300 -69.669400 -11.754300 -0.000006 -0.000006 -0.002908 -0.039559 -18.181900
